<svg id="Layer_1" data-name="Layer 1" xmlns="http://www.w3.org/2000/svg" viewBox="0 0 60 60"><defs><style>.cls-1{fill:#e9eaeb;}.cls-2{fill:#259ba1;}.cls-3{fill:#fff;}.cls-4{fill:#484847;}</style></defs><title>Icons</title><circle class="cls-1" cx="28.17" cy="29.27" r="13.18"/><polygon class="cls-2" points="36.66 25.61 29.63 25.61 29.63 24.14 35.93 24.14 39.37 19.02 45.74 19.02 45.74 20.48 40.1 20.48 36.66 25.61"/><rect class="cls-2" x="36.22" y="28.54" width="10.98" height="1.46"/><circle class="cls-3" cx="45.38" cy="20.11" r="2.56"/><path class="cls-2" d="M45.38,16.82a3.3,3.3,0,1,0,3.3,3.3A3.28,3.28,0,0,0,45.38,16.82Zm0,5.13a1.83,1.83,0,1,1,1.83-1.83A1.81,1.81,0,0,1,45.38,21.94Z"/><polygon class="cls-2" points="45.74 38.79 39.37 38.79 36.01 34.39 34.76 34.39 34.76 32.93 36.74 32.93 40.1 37.32 45.74 37.32 45.74 38.79"/><circle class="cls-3" cx="45.38" cy="38.42" r="2.56"/><path class="cls-2" d="M45.38,41.72a3.3,3.3,0,1,1,3.3-3.3A3.28,3.28,0,0,1,45.38,41.72Zm0-5.13a1.83,1.83,0,1,0,1.83,1.83A1.81,1.81,0,0,0,45.38,36.59Z"/><circle class="cls-3" cx="47.57" cy="28.9" r="2.56"/><path class="cls-2" d="M47.57,32.2a3.3,3.3,0,1,1,3.3-3.3A3.28,3.28,0,0,1,47.57,32.2Zm0-5.13a1.83,1.83,0,1,0,1.83,1.83A1.81,1.81,0,0,0,47.57,27.07Z"/><polygon class="cls-2" points="39.08 48.31 32.93 39.52 28.17 39.52 28.17 38.05 33.66 38.05 40.25 47.5 39.08 48.31"/><circle class="cls-3" cx="39.52" cy="47.21" r="2.56"/><path class="cls-2" d="M39.52,50.5a3.3,3.3,0,1,1,3.3-3.3A3.28,3.28,0,0,1,39.52,50.5Zm0-5.13a1.83,1.83,0,1,0,1.83,1.83A1.81,1.81,0,0,0,39.52,45.38Z"/><polygon class="cls-2" points="35.05 19.75 33.3 19.75 33.3 18.28 34.39 18.28 39.96 11.84 41.06 12.79 35.05 19.75"/><circle class="cls-3" cx="40.98" cy="12.79" r="2.56"/><path class="cls-2" d="M41,16.09a3.3,3.3,0,1,1,3.3-3.3A3.28,3.28,0,0,1,41,16.09ZM41,11a1.83,1.83,0,1,0,1.83,1.83A1.81,1.81,0,0,0,41,11Z"/><path class="cls-4" d="M31.1,48.31H23.78v-4a15.6,15.6,0,0,1-3.59-1.54l-2.71,2.56-5.2-5.27,2.27-2.93a20.15,20.15,0,0,1-1.61-4.25H9.13V24.87H13a19.38,19.38,0,0,1,1.46-3.44l-2.27-2.56,5.2-5.27,2.71,2.2a16,16,0,0,1,3.59-1.46L23.78,11H31.1v3.66H29.63v-2.2H25.24V15.5l-.59.15a12.77,12.77,0,0,0-4.17,1.68l-.44.22L17.55,15.5l-3.3,3.44,2.12,2.34-.29.44a14.66,14.66,0,0,0-1.76,4l-.15.59H10.59v5.13h3.51l.15.59a15.75,15.75,0,0,0,1.83,4.76l.29.44L14.26,40l3.3,3.37L20,41.06l.44.29a14,14,0,0,0,4.17,1.76l.59.15v3.59h4.39V43.18H31.1Z"/><path class="cls-2" d="M29.63,34.39H28.1a5.13,5.13,0,1,1,0-10.25h1.54v1.46H28.1a3.79,3.79,0,0,0-3.73,3.66,3.74,3.74,0,0,0,3.73,3.66h1.54Z"/><path class="cls-2" d="M28.17,39.52c-6.08,0-11-4.61-11-10.25a11.26,11.26,0,0,1,11-11v1.46a9.79,9.79,0,0,0-9.52,9.52c0,4.83,4.25,8.79,9.52,8.79Z"/><rect class="cls-2" x="29.63" y="28.54" width="1.46" height="1.46"/><rect class="cls-2" x="33.3" y="28.54" width="1.46" height="1.46"/><rect class="cls-2" x="29.63" y="18.28" width="1.46" height="1.46"/><rect class="cls-2" x="31.1" y="32.93" width="2.2" height="1.46"/></svg>